<svg width="1920" height="1080" viewBox="0 0 1920 1080" xmlns="http://www.w3.org/2000/svg">
  <rect width="100%" height="100%" fill="#f5f5dc"/> <!-- Beige background -->

  <!-- Ornate Border Decoration -->
  <path d="M50,50 C300,200 700,100 1000,250 S1700,300 1850,100" 
        fill="none" stroke="darkgreen" stroke-width="12"/>
  <path d="M50,1030 C400,900 900,1050 1300,900 S1700,700 1850,950" 
        fill="none" stroke="darkgreen" stroke-width="12"/>

  <!-- Central swirling vine structure -->
  <path d="M100,900 C400,600 800,1000 1100,700 S1700,300 1850,600" 
        fill="none" stroke="green" stroke-width="15"/>
  <path d="M150,850 C450,500 850,950 1200,600 S1750,350 1900,750" 
        fill="none" stroke="darkgreen" stroke-width="12"/>
  
  <!-- Additional tendrils -->
  <path d="M300,950 C700,400 1200,1100 1500,400 S1800,600 1900,900" 
        fill="none" stroke="forestgreen" stroke-width="10"/>
  <path d="M250,100 C600,500 1100,200 1400,700 S1700,900 1900,600" 
        fill="none" stroke="seagreen" stroke-width="8"/>
  
  <!-- Decorative floral elements -->
  <g fill="orange">
    <circle cx="300" cy="400" r="50"/>
    <circle cx="800" cy="700" r="60"/>
    <circle cx="1500" cy="300" r="55"/>
    <circle cx="1300" cy="500" r="45"/>
  </g>

  <!-- Layered petals -->
  <g fill="goldenrod">
    <ellipse cx="320" cy="420" rx="30" ry="15" transform="rotate(30 320 420)"/>
    <ellipse cx="820" cy="720" rx="35" ry="18" transform="rotate(-25 820 720)"/>
    <ellipse cx="1520" cy="320" rx="40" ry="20" transform="rotate(40 1520 320)"/>
  </g>

  <!-- Leaves -->
  <g fill="green">
    <ellipse cx="250" cy="450" rx="40" ry="20" transform="rotate(30 250 450)"/>
    <ellipse cx="600" cy="750" rx="50" ry="25" transform="rotate(-20 600 750)"/>
    <ellipse cx="1300" cy="500" rx="30" ry="15" transform="rotate(40 1300 500)"/>
  </g>

  <!-- Spiral Accents -->
  <path d="M500,500 Q600,600 700,500 T900,500 T1100,400" 
        fill="none" stroke="darkgreen" stroke-width="6"/>
  <path d="M600,700 Q750,800 900,700 T1100,600 T1300,500" 
        fill="none" stroke="darkgreen" stroke-width="5"/>

</svg>
